<svg width="16" height="16" fill="none" xmlns="http://www.w3.org/2000/svg"><circle cx="8" cy="8" r="8" fill="#000"/><path d="M5.283 5.17c.396.132.753.339 1.09.58a8.006 8.006 0 011.676 1.64c.349.454.662.932.948 1.428.052.089.107.175.193.315.002.003.006.002.006-.001.112-1.091-.385-2.655-1.648-3.792-.753-.678-1.725-1.066-2.54-1.19-.383-.057-.73-.057-1.005 0L4 4.153c-.002.108.009.222.01.336.005 1.038-.005 2.076 0 3.115.005.985.007 1.971.014 2.957 0 .187.153.341.34.345.11.002.223.005.337.002a.336.336 0 00.325-.333c.002-.178-.003-.353-.002-.528l-.003-.694V9.22l-.005-.827-.004-.794-.004-.826V5.1c.045.01.209.047.275.07z" fill="#fff"/><path d="M11.35 12.441c-.005-1.527.005-3.053 0-4.58-.005-1.449-.008-2.898-.014-4.347 0-.275-.154-.503-.34-.509-.11-.003-.223-.008-.337-.003-.18.008-.311.226-.312.49-.002.261.003.519.002.776l.003 1.02v3.98l.002 1.03-.002 1.244v.433a3.233 3.233 0 01-.275-.058 4.112 4.112 0 01-1.09-.58 8.006 8.006 0 01-1.675-1.64c-.35-.455-.663-.933-.95-1.429-.05-.088-.105-.174-.191-.315-.002-.002-.007-.002-.007.002-.112 1.091.385 2.655 1.648 3.792.745.671 1.863 1.09 2.677 1.217l.01.002.013.002v-.001c.319.052.61.042.845-.03.001 0 .003-.002.003-.005.002-.157-.01-.324-.01-.49z" fill="#fff"/></svg>