<svg xmlns="http://www.w3.org/2000/svg"><symbol id="icon-add" viewBox="0 0 17 17"><circle cx="8.5" cy="8.5" r="8.5" fill="#9C150C"/><path d="M6 8l2 4 3.5-7" stroke="#fff"/></symbol><symbol id="icon-arr-down" viewBox="0 0 20 11"><path d="M18.697.652l-9.13 9.566L.435.652" stroke="#000"/></symbol><symbol id="icon-arr" viewBox="0 0 24 24"><path fill="none" d="M0 0h24v24H0z"/><path d="M15.5 5H11l5 7-5 7h4.5l5-7z"/><path d="M8.5 5H4l5 7-5 7h4.5l5-7z"/></symbol><symbol id="icon-basket" viewBox="0 0 44 35"><path d="M7.583 21h2.334v9.333H7.583V21zm5.834 0h2.333v9.333h-2.333V21zm5.833 0h2.333v9.333H19.25V21zm5.833 0h2.334v9.333h-2.334V21z"/><path d="M33.373 11.083L27.567 0h-2.634l5.805 11.083H4.261L10.067 0H7.433L1.627 11.083H0v8.128L3.125 35h28.748L35 19.366v-8.283h-1.627zm-.706 8.051L29.96 32.667H5.042L2.333 18.983v-.316h30.334v.467zm0-2.8H2.333v-2.917h30.334v2.916z"/></symbol><symbol id="icon-cart" viewBox="0 0 22 19"><path d="M4.305 10.054a.516.516 0 01-.003-.017L3.044 2.792c-.124-.715-.77-1.24-1.526-1.24h-.315a.506.506 0 01-.516-.495c0-.273.231-.494.516-.494h.315c1.23 0 2.283.831 2.526 1.979h16.753c.342 0 .59.314.495.63L19.23 10.1a.513.513 0 01-.496.358H5.421l.128.74c.125.715.77 1.24 1.526 1.24h11.66c.284 0 .515.221.515.494a.505.505 0 01-.516.495H7.075c-1.26 0-2.336-.874-2.543-2.067l-.227-1.306zm-.087-6.523L5.249 9.47h13.096l1.768-5.938H4.218zm2.657 14.844c-1.14 0-2.063-.886-2.063-1.98 0-1.092.924-1.978 2.063-1.978 1.139 0 2.062.886 2.062 1.979s-.923 1.979-2.062 1.979zm0-.99c.57 0 1.031-.443 1.031-.99 0-.546-.462-.989-1.031-.989-.57 0-1.031.443-1.031.99 0 .546.461.99 1.03.99zm9.281.99c-1.14 0-2.062-.886-2.062-1.98 0-1.092.923-1.978 2.062-1.978 1.14 0 2.063.886 2.063 1.979s-.924 1.979-2.063 1.979zm0-.99c.57 0 1.031-.443 1.031-.99 0-.546-.462-.989-1.031-.989-.57 0-1.031.443-1.031.99 0 .546.461.99 1.031.99z" fill="#fff"/></symbol><symbol id="icon-cart2" viewBox="0 0 24 24"><path d="M0 0h24v24H0z" fill="none"/><path d="M7 18c-1.1 0-1.99.9-1.99 2S5.9 22 7 22s2-.9 2-2-.9-2-2-2zM1 2v2h2l3.6 7.59-1.35 2.45c-.16.28-.25.61-.25.96 0 1.1.9 2 2 2h12v-2H7.42c-.14 0-.25-.11-.25-.25l.03-.12.9-1.63h7.45c.75 0 1.41-.41 1.75-1.03l3.58-6.49A1.003 1.003 0 0020 4H5.21l-.94-2H1zm16 16c-1.1 0-1.99.9-1.99 2s.89 2 1.99 2 2-.9 2-2-.9-2-2-2z"/></symbol><symbol id="icon-close" viewBox="0 0 24 24"><path d="M0 0h24v24H0z" fill="none"/><path d="M19 6.41L17.59 5 12 10.59 6.41 5 5 6.41 10.59 12 5 17.59 6.41 19 12 13.41 17.59 19 19 17.59 13.41 12z"/></symbol><symbol id="icon-contacts-map" viewBox="0 0 48 48"><path d="M24 4c-7.74 0-14 6.26-14 14 0 10.5 14 26 14 26s14-15.5 14-26c0-7.74-6.26-14-14-14zm0 19c-2.76 0-5-2.24-5-5s2.24-5 5-5 5 2.24 5 5-2.24 5-5 5z" fill="#9C150C"/></symbol><symbol id="icon-expand" viewBox="0 0 24 24"><path d="M0 0h24v24H0z" fill="none"/><path d="M16.59 8.59L12 13.17 7.41 8.59 6 10l6 6 6-6z"/></symbol><symbol id="icon-insta" viewBox="0 0 256 256" preserveAspectRatio="xMidYMid"><path d="M128 23.064c34.177 0 38.225.13 51.722.745 12.48.57 19.258 2.655 23.769 4.408 5.974 2.322 10.238 5.096 14.717 9.575 4.48 4.479 7.253 8.743 9.575 14.717 1.753 4.511 3.838 11.289 4.408 23.768.615 13.498.745 17.546.745 51.723 0 34.178-.13 38.226-.745 51.723-.57 12.48-2.655 19.257-4.408 23.768-2.322 5.974-5.096 10.239-9.575 14.718-4.479 4.479-8.743 7.253-14.717 9.574-4.511 1.753-11.289 3.839-23.769 4.408-13.495.616-17.543.746-51.722.746-34.18 0-38.228-.13-51.723-.746-12.48-.57-19.257-2.655-23.768-4.408-5.974-2.321-10.239-5.095-14.718-9.574-4.479-4.48-7.253-8.744-9.574-14.718-1.753-4.51-3.839-11.288-4.408-23.768-.616-13.497-.746-17.545-.746-51.723 0-34.177.13-38.225.746-51.722.57-12.48 2.655-19.258 4.408-23.769 2.321-5.974 5.095-10.238 9.574-14.717 4.48-4.48 8.744-7.253 14.718-9.575 4.51-1.753 11.288-3.838 23.768-4.408 13.497-.615 17.545-.745 51.723-.745M128 0C93.237 0 88.878.147 75.226.77c-13.625.622-22.93 2.786-31.071 5.95-8.418 3.271-15.556 7.648-22.672 14.764C14.367 28.6 9.991 35.738 6.72 44.155 3.555 52.297 1.392 61.602.77 75.226.147 88.878 0 93.237 0 128c0 34.763.147 39.122.77 52.774.622 13.625 2.785 22.93 5.95 31.071 3.27 8.417 7.647 15.556 14.763 22.672 7.116 7.116 14.254 11.492 22.672 14.763 8.142 3.165 17.446 5.328 31.07 5.95 13.653.623 18.012.77 52.775.77s39.122-.147 52.774-.77c13.624-.622 22.929-2.785 31.07-5.95 8.418-3.27 15.556-7.647 22.672-14.763 7.116-7.116 11.493-14.254 14.764-22.672 3.164-8.142 5.328-17.446 5.95-31.07.623-13.653.77-18.012.77-52.775s-.147-39.122-.77-52.774c-.622-13.624-2.786-22.929-5.95-31.07-3.271-8.418-7.648-15.556-14.764-22.672C227.4 14.368 220.262 9.99 211.845 6.72c-8.142-3.164-17.447-5.328-31.071-5.95C167.122.147 162.763 0 128 0zm0 62.27c-36.302 0-65.73 29.43-65.73 65.73 0 36.302 29.428 65.73 65.73 65.73 36.301 0 65.73-29.428 65.73-65.73 0-36.301-29.429-65.73-65.73-65.73zm0 108.397c-23.564 0-42.667-19.103-42.667-42.667S104.436 85.333 128 85.333s42.667 19.103 42.667 42.667-19.103 42.667-42.667 42.667zm83.686-110.994c0 8.484-6.876 15.36-15.36 15.36-8.483 0-15.36-6.876-15.36-15.36 0-8.483 6.877-15.36 15.36-15.36 8.484 0 15.36 6.877 15.36 15.36z"/></symbol><symbol id="icon-logo" viewBox="0 0 81 60"><path d="M31.926 7.71c1.41.47 2.683 1.202 3.883 2.06 2.287 1.64 4.262 3.598 5.974 5.822a46.12 46.12 0 013.383 5.073c.181.313.378.62.685 1.118.007.01.023.007.023-.005.4-3.875-1.372-9.428-5.874-13.466-2.684-2.407-6.149-3.784-9.057-4.222-1.363-.204-2.603-.204-3.58-.002-.005.002-.01.007-.01.012-.01.383.03.788.033 1.19.019 3.688-.016 7.375.003 11.062.016 3.5.023 7 .047 10.5a1.241 1.241 0 001.214 1.226c.392.007.794.018 1.2.007a1.197 1.197 0 001.16-1.184c.007-.63-.012-1.252-.01-1.873.003-.821-.005-1.645-.01-2.466l-.002-.468-.014-2.935a23780.554 23780.554 0 00-.028-5.755c0-.134-.003-.287-.003-.452v-5.49c.163.036.747.167.983.247z"/><path d="M53.551 33.526c-.019-5.423.017-10.843-.002-16.264-.017-5.146-.024-10.292-.048-15.438C53.5.849 52.953.038 52.287.019c-.392-.012-.793-.029-1.2-.012-.642.028-1.108.802-1.112 1.741-.007.927.012 1.84.01 2.753-.003 1.21.004 2.417.009 3.626v-.002V22.26l.01 3.652-.01 4.419v1.539c-.385-.07-.841-.16-.98-.207-1.41-.47-2.684-1.203-3.884-2.061-2.286-1.64-4.261-3.598-5.974-5.822a46.15 46.15 0 01-3.382-5.073c-.182-.313-.378-.619-.685-1.118-.007-.01-.024-.007-.024.005-.399 3.875 1.373 9.429 5.875 13.466 2.657 2.384 6.642 3.871 9.543 4.323.012.002.023.005.035.005l.047.007v-.003c1.137.186 2.171.151 3.012-.103.005-.002.01-.01.01-.019.006-.558-.034-1.153-.036-1.744zM12.04 45.53v14.35h-1.255L1.524 48.236v11.646H0V45.529h1.254l9.28 11.646V45.529h1.506zm4.641 0h1.524v14.35H16.68V45.53zm9.262 1.312H20.88V45.53h11.647v1.313h-5.064v13.039H25.94v-13.04h.002zm9.259-1.312h1.524v14.35h-1.524V45.53zm7.266 13.96c-.98-.341-1.738-.793-2.275-1.353l.598-1.17c.522.52 1.214.94 2.079 1.262a7.595 7.595 0 002.676.482c1.29 0 2.256-.235 2.903-.708.647-.473.968-1.083.968-1.836 0-.574-.174-1.03-.524-1.374a3.536 3.536 0 00-1.287-.788c-.508-.184-1.214-.386-2.12-.605-1.083-.273-1.948-.536-2.593-.788a4.225 4.225 0 01-1.656-1.158c-.46-.52-.69-1.224-.69-2.11 0-.725.192-1.384.577-1.98.385-.595.973-1.068 1.77-1.426.795-.355 1.783-.534 2.964-.534.824 0 1.63.113 2.419.34.788.225 1.471.536 2.047.93l-.514 1.21a7.14 7.14 0 00-1.935-.891 7.273 7.273 0 00-2.017-.297c-1.262 0-2.213.242-2.851.727-.638.485-.957 1.11-.957 1.876 0 .574.175 1.035.525 1.383.35.349.788.614 1.317.8.53.184 1.238.386 2.131.605 1.056.259 1.911.515 2.563.77a4.197 4.197 0 011.656 1.148c.453.513.68 1.207.68 2.08 0 .725-.196 1.383-.586 1.979-.392.595-.992 1.066-1.8 1.414-.81.348-1.804.522-2.983.522a9.184 9.184 0 01-3.085-.51zm21.58-12.65c1.042.876 1.564 2.078 1.564 3.608 0 1.532-.522 2.73-1.564 3.598-1.044.868-2.482 1.301-4.322 1.301h-3.87v4.53h-1.523V45.525h5.393c1.84.003 3.28.44 4.322 1.316zm-1.091 6.243c.753-.62 1.131-1.498 1.131-2.635 0-1.162-.378-2.054-1.131-2.675-.756-.622-1.845-.932-3.272-.932h-3.829v7.177h3.83c1.426-.003 2.517-.313 3.27-.934zm17.21.616c.515.61.773 1.39.773 2.348 0 1.23-.456 2.177-1.368 2.84-.912.664-2.26.996-4.044.996H68.9V45.53h6.215c1.606 0 2.85.323 3.734.965.886.642 1.328 1.55 1.328 2.727 0 .793-.196 1.466-.586 2.02-.39.552-.93.966-1.616 1.24.947.202 1.677.609 2.192 1.216zm-9.746-6.92v5.207h4.59c1.167 0 2.064-.221 2.695-.666.63-.445.947-1.09.947-1.937s-.316-1.494-.947-1.936c-.63-.445-1.53-.666-2.695-.666h-4.59v-.003zm8.008 11.195c.659-.437.987-1.12.987-2.05 0-1.79-1.304-2.684-3.91-2.684h-5.082v5.39h5.083c1.287 0 2.263-.218 2.922-.656z"/></symbol><symbol id="icon-mail" viewBox="0 0 24 24"><path d="M0 0h24v24H0z" fill="none"/><path d="M12 2C6.48 2 2 6.48 2 12s4.48 10 10 10h5v-2h-5c-4.34 0-8-3.66-8-8s3.66-8 8-8 8 3.66 8 8v1.43c0 .79-.71 1.57-1.5 1.57s-1.5-.78-1.5-1.57V12c0-2.76-2.24-5-5-5s-5 2.24-5 5 2.24 5 5 5c1.38 0 2.64-.56 3.54-1.47.65.89 1.77 1.47 2.96 1.47 1.97 0 3.5-1.6 3.5-3.57V12c0-5.52-4.48-10-10-10zm0 13c-1.66 0-3-1.34-3-3s1.34-3 3-3 3 1.34 3 3-1.34 3-3 3z"/></symbol><symbol id="icon-map" viewBox="0 0 14 20"><path d="M7 0C3.13 0 0 3.13 0 7c0 5.25 7 13 7 13s7-7.75 7-13c0-3.87-3.13-7-7-7zm0 9.5a2.5 2.5 0 010-5 2.5 2.5 0 010 5z" fill="#fff"/></symbol><symbol id="icon-menu_closed" viewBox="0 0 24 24"><path fill="none" d="M0 0h24v24H0z"/><path d="M20 9H4v2h16V9zM4 15h16v-2H4v2z"/></symbol><symbol id="icon-menu_opened" viewBox="0 0 24 24"><path d="M0 0h24v24H0z" fill="none"/><path d="M19 6.41L17.59 5 12 10.59 6.41 5 5 6.41 10.59 12 5 17.59 6.41 19 12 13.41 17.59 19 19 17.59 13.41 12z"/></symbol><symbol id="icon-min" viewBox="0 0 22 4"><path d="M.5 3.125V.875h21v2.25H.5z" fill="#fff"/></symbol><symbol id="icon-minus" viewBox="0 0 7 3"><path d="M6.006.685H.278V2.09h5.728V.685z"/></symbol><symbol id="icon-pl" viewBox="0 0 22 22"><path d="M9.875 21.5v-9.375H.5v-2.25h9.375V.5h2.25v9.375H21.5v2.25h-9.375V21.5h-2.25z" fill="#fff"/></symbol><symbol id="icon-plus" viewBox="0 0 10 10"><path d="M4.216 9.105h1.432V5.602H9.15V4.17H5.648V.668H4.216V4.17H.713v1.432h3.503v3.503z"/></symbol><symbol id="icon-remove" viewBox="0 0 24 24"><path d="M0 0h24v24H0z" fill="none"/><path d="M14.59 8L12 10.59 9.41 8 8 9.41 10.59 12 8 14.59 9.41 16 12 13.41 14.59 16 16 14.59 13.41 12 16 9.41 14.59 8zM12 2C6.47 2 2 6.47 2 12s4.47 10 10 10 10-4.47 10-10S17.53 2 12 2zm0 18c-4.41 0-8-3.59-8-8s3.59-8 8-8 8 3.59 8 8-3.59 8-8 8z"/></symbol><symbol id="icon-search" viewBox="0 0 24 24"><path d="M0 0h24v24H0z" fill="none"/><path d="M15.5 14h-.79l-.28-.27A6.471 6.471 0 0016 9.5 6.5 6.5 0 109.5 16c1.61 0 3.09-.59 4.23-1.57l.27.28v.79l5 4.99L20.49 19l-4.99-5zm-6 0C7.01 14 5 11.99 5 9.5S7.01 5 9.5 5 14 7.01 14 9.5 11.99 14 9.5 14z"/></symbol><symbol id="icon-select-arr" viewBox="0 0 12 12"><path d="M8.295 4.295L6 6.585l-2.295-2.29L3 5l3 3 3-3-.705-.705z" fill="#696666"/></symbol><symbol id="icon-vk" viewBox="0 0 24 24"><path d="M12.145 19.5c3.472 0 2.234-2.198 2.502-2.83-.004-.472-.008-.926.008-1.202.22.062.739.325 1.811 1.367 1.655 1.67 2.078 2.665 3.415 2.665h2.461c.78 0 1.186-.323 1.389-.594.196-.262.388-.722.178-1.438-.549-1.724-3.751-4.701-3.95-5.015a2.84 2.84 0 01.103-.175h-.002c.632-.835 3.044-4.449 3.399-5.895a.019.019 0 00.002-.008c.192-.66.016-1.088-.166-1.33-.274-.362-.71-.545-1.299-.545h-2.461c-.824 0-1.449.415-1.765 1.172-.529 1.345-2.015 4.111-3.129 5.09a64.114 64.114 0 01.007-3.233c.036-1.535.152-3.029-1.441-3.029H9.339c-.998 0-1.953 1.09-.919 2.384.904 1.134.325 1.766.52 4.912-.76-.815-2.112-3.016-3.068-5.829-.268-.761-.674-1.466-1.817-1.466H1.594C.596 4.501 0 5.045 0 5.956 0 8.002 4.529 19.5 12.145 19.5zM4.055 6.001c.217 0 .239 0 .4.457.979 2.883 3.175 7.149 4.779 7.149 1.205 0 1.205-1.235 1.205-1.7l-.001-3.702C10.372 6.98 9.926 6.37 9.633 6l3.508.004c.002.017-.02 4.095.01 5.083 0 1.403 1.114 2.207 2.853.447 1.835-2.071 3.104-5.167 3.155-5.293.075-.18.14-.241.376-.241h2.471l-.002.009c-.225 1.05-2.446 4.396-3.189 5.435l-.034.05c-.327.534-.593 1.124.045 1.954h.001c.058.07.209.234.429.462.684.706 3.03 3.12 3.238 4.08-.138.022-.288.006-2.613.011-.495 0-.882-.74-2.359-2.23-1.328-1.292-2.19-1.82-2.975-1.82-1.524 0-1.413 1.237-1.399 2.733.005 1.622-.005 1.109.006 1.211-.089.035-.344.105-1.009.105C5.8 18 1.668 7.929 1.509 6.004c.055-.005.812-.002 2.546-.003z"/></symbol></svg>