<svg xmlns="http://www.w3.org/2000/svg"><symbol id="icon-add" viewBox="0 0 17 17"><circle cx="8.5" cy="8.5" r="8.5" fill="#9C150C"/><path d="M6 8l2 4 3.5-7" stroke="#fff"/></symbol><symbol id="icon-basket" viewBox="0 0 44 35"><path d="M7.583 21h2.334v9.333H7.583V21zm5.834 0h2.333v9.333h-2.333V21zm5.833 0h2.333v9.333H19.25V21zm5.833 0h2.334v9.333h-2.334V21z"/><path d="M33.373 11.083L27.567 0h-2.634l5.805 11.083H4.261L10.067 0H7.433L1.627 11.083H0v8.128L3.125 35h28.748L35 19.366v-8.283h-1.627zm-.706 8.051L29.96 32.667H5.042L2.333 18.983v-.316h30.334v.467zm0-2.8H2.333v-2.917h30.334v2.916z"/></symbol><symbol id="icon-search" viewBox="0 0 31 31"><path fill-rule="evenodd" clip-rule="evenodd" d="M22.204 19.993l8.338 8.338a1.564 1.564 0 01-2.211 2.21l-8.339-8.338a12.4 12.4 0 112.21-2.21h.002zM12.4 21.699a9.3 9.3 0 100-18.6 9.3 9.3 0 000 18.6z"/></symbol></svg>