<svg xmlns="http://www.w3.org/2000/svg"><symbol id="icon-add" viewBox="0 0 17 17"><circle cx="8.5" cy="8.5" r="8.5" fill="#9C150C"/><path d="M6 8l2 4 3.5-7" stroke="#fff"/></symbol><symbol id="icon-arr" viewBox="0 0 24 24"><path fill="none" d="M0 0h24v24H0z"/><path d="M15.5 5H11l5 7-5 7h4.5l5-7z"/><path d="M8.5 5H4l5 7-5 7h4.5l5-7z"/></symbol><symbol id="icon-basket" viewBox="0 0 44 35"><path d="M7.583 21h2.334v9.333H7.583V21zm5.834 0h2.333v9.333h-2.333V21zm5.833 0h2.333v9.333H19.25V21zm5.833 0h2.334v9.333h-2.334V21z"/><path d="M33.373 11.083L27.567 0h-2.634l5.805 11.083H4.261L10.067 0H7.433L1.627 11.083H0v8.128L3.125 35h28.748L35 19.366v-8.283h-1.627zm-.706 8.051L29.96 32.667H5.042L2.333 18.983v-.316h30.334v.467zm0-2.8H2.333v-2.917h30.334v2.916z"/></symbol><symbol id="icon-logo" viewBox="0 0 81 60"><path d="M31.926 7.71c1.41.47 2.683 1.202 3.883 2.06 2.287 1.64 4.262 3.598 5.974 5.822a46.12 46.12 0 013.383 5.073c.181.313.378.62.685 1.118.007.01.023.007.023-.005.4-3.875-1.372-9.428-5.874-13.466-2.684-2.407-6.149-3.784-9.057-4.222-1.363-.204-2.603-.204-3.58-.002-.005.002-.01.007-.01.012-.01.383.03.788.033 1.19.019 3.688-.016 7.375.003 11.062.016 3.5.023 7 .047 10.5a1.241 1.241 0 001.214 1.226c.392.007.794.018 1.2.007a1.197 1.197 0 001.16-1.184c.007-.63-.012-1.252-.01-1.873.003-.821-.005-1.645-.01-2.466l-.002-.468-.014-2.935a23780.554 23780.554 0 00-.028-5.755c0-.134-.003-.287-.003-.452v-5.49c.163.036.747.167.983.247z"/><path d="M53.551 33.526c-.019-5.423.017-10.843-.002-16.264-.017-5.146-.024-10.292-.048-15.438C53.5.849 52.953.038 52.287.019c-.392-.012-.793-.029-1.2-.012-.642.028-1.108.802-1.112 1.741-.007.927.012 1.84.01 2.753-.003 1.21.004 2.417.009 3.626v-.002V22.26l.01 3.652-.01 4.419v1.539c-.385-.07-.841-.16-.98-.207-1.41-.47-2.684-1.203-3.884-2.061-2.286-1.64-4.261-3.598-5.974-5.822a46.15 46.15 0 01-3.382-5.073c-.182-.313-.378-.619-.685-1.118-.007-.01-.024-.007-.024.005-.399 3.875 1.373 9.429 5.875 13.466 2.657 2.384 6.642 3.871 9.543 4.323.012.002.023.005.035.005l.047.007v-.003c1.137.186 2.171.151 3.012-.103.005-.002.01-.01.01-.019.006-.558-.034-1.153-.036-1.744zM12.04 45.53v14.35h-1.255L1.524 48.236v11.646H0V45.529h1.254l9.28 11.646V45.529h1.506zm4.641 0h1.524v14.35H16.68V45.53zm9.262 1.312H20.88V45.53h11.647v1.313h-5.064v13.039H25.94v-13.04h.002zm9.259-1.312h1.524v14.35h-1.524V45.53zm7.266 13.96c-.98-.341-1.738-.793-2.275-1.353l.598-1.17c.522.52 1.214.94 2.079 1.262a7.595 7.595 0 002.676.482c1.29 0 2.256-.235 2.903-.708.647-.473.968-1.083.968-1.836 0-.574-.174-1.03-.524-1.374a3.536 3.536 0 00-1.287-.788c-.508-.184-1.214-.386-2.12-.605-1.083-.273-1.948-.536-2.593-.788a4.225 4.225 0 01-1.656-1.158c-.46-.52-.69-1.224-.69-2.11 0-.725.192-1.384.577-1.98.385-.595.973-1.068 1.77-1.426.795-.355 1.783-.534 2.964-.534.824 0 1.63.113 2.419.34.788.225 1.471.536 2.047.93l-.514 1.21a7.14 7.14 0 00-1.935-.891 7.273 7.273 0 00-2.017-.297c-1.262 0-2.213.242-2.851.727-.638.485-.957 1.11-.957 1.876 0 .574.175 1.035.525 1.383.35.349.788.614 1.317.8.53.184 1.238.386 2.131.605 1.056.259 1.911.515 2.563.77a4.197 4.197 0 011.656 1.148c.453.513.68 1.207.68 2.08 0 .725-.196 1.383-.586 1.979-.392.595-.992 1.066-1.8 1.414-.81.348-1.804.522-2.983.522a9.184 9.184 0 01-3.085-.51zm21.58-12.65c1.042.876 1.564 2.078 1.564 3.608 0 1.532-.522 2.73-1.564 3.598-1.044.868-2.482 1.301-4.322 1.301h-3.87v4.53h-1.523V45.525h5.393c1.84.003 3.28.44 4.322 1.316zm-1.091 6.243c.753-.62 1.131-1.498 1.131-2.635 0-1.162-.378-2.054-1.131-2.675-.756-.622-1.845-.932-3.272-.932h-3.829v7.177h3.83c1.426-.003 2.517-.313 3.27-.934zm17.21.616c.515.61.773 1.39.773 2.348 0 1.23-.456 2.177-1.368 2.84-.912.664-2.26.996-4.044.996H68.9V45.53h6.215c1.606 0 2.85.323 3.734.965.886.642 1.328 1.55 1.328 2.727 0 .793-.196 1.466-.586 2.02-.39.552-.93.966-1.616 1.24.947.202 1.677.609 2.192 1.216zm-9.746-6.92v5.207h4.59c1.167 0 2.064-.221 2.695-.666.63-.445.947-1.09.947-1.937s-.316-1.494-.947-1.936c-.63-.445-1.53-.666-2.695-.666h-4.59v-.003zm8.008 11.195c.659-.437.987-1.12.987-2.05 0-1.79-1.304-2.684-3.91-2.684h-5.082v5.39h5.083c1.287 0 2.263-.218 2.922-.656z"/></symbol><symbol id="icon-search" viewBox="0 0 31 31"><path fill-rule="evenodd" clip-rule="evenodd" d="M22.204 19.993l8.338 8.338a1.564 1.564 0 01-2.211 2.21l-8.339-8.338a12.4 12.4 0 112.21-2.21h.002zM12.4 21.699a9.3 9.3 0 100-18.6 9.3 9.3 0 000 18.6z"/></symbol></svg>