<svg xmlns="http://www.w3.org/2000/svg"><symbol id="icon-add" viewBox="0 0 17 17"><circle cx="8.5" cy="8.5" r="8.5" fill="#9C150C"/><path d="M6 8l2 4 3.5-7" stroke="#fff"/></symbol><symbol id="icon-arr" viewBox="0 0 24 24"><path fill="none" d="M0 0h24v24H0z"/><path d="M15.5 5H11l5 7-5 7h4.5l5-7z"/><path d="M8.5 5H4l5 7-5 7h4.5l5-7z"/></symbol><symbol id="icon-basket" viewBox="0 0 44 35"><path d="M7.583 21h2.334v9.333H7.583V21zm5.834 0h2.333v9.333h-2.333V21zm5.833 0h2.333v9.333H19.25V21zm5.833 0h2.334v9.333h-2.334V21z"/><path d="M33.373 11.083L27.567 0h-2.634l5.805 11.083H4.261L10.067 0H7.433L1.627 11.083H0v8.128L3.125 35h28.748L35 19.366v-8.283h-1.627zm-.706 8.051L29.96 32.667H5.042L2.333 18.983v-.316h30.334v.467zm0-2.8H2.333v-2.917h30.334v2.916z"/></symbol><symbol id="icon-cart" viewBox="0 0 512 512"><path d="M485.7 198.5c-10.7-13.4-25.3-20.8-41.1-20.8h-36.1C405.1 85.1 338 11 256 11S106.9 85.1 103.5 177.7H67.4c-15.8 0-30.4 7.4-41.1 20.8-13.5 16.8-18.4 40.2-13.3 62.7L56.3 452c6.5 28.8 28.9 49 54.4 49h290.5c25.5 0 47.9-20.1 54.4-49L499 261.2c5.1-22.5.2-45.9-13.3-62.7zM256 51.8c59.6 0 108.4 55.8 111.6 125.9H144.4c3.2-70 52-125.9 111.6-125.9zm203.2 200.3L415.9 443c-2.2 9.8-8.5 17.2-14.6 17.2H110.7c-6.1 0-12.4-7.4-14.6-17.2L52.8 252.1c-2.3-10.1-3.7-33.6 14.6-33.6h377.2c19.7 0 16.9 23.5 14.6 33.6z"/><path d="M154.7 259.1c-11.3 0-20.4 9.1-20.4 20.4V407c0 11.3 9.1 20.4 20.4 20.4 11.3 0 20.4-9.1 20.4-20.4V279.5c.1-11.2-9.1-20.4-20.4-20.4zm98.9 0c-11.3 0-20.4 9.1-20.4 20.4V407c0 11.3 9.1 20.4 20.4 20.4 11.3 0 20.4-9.1 20.4-20.4V279.5c0-11.2-9.2-20.4-20.4-20.4zm98.8 0c-11.3 0-20.4 9.1-20.4 20.4V407c0 11.3 9.1 20.4 20.4 20.4 11.3 0 20.4-9.1 20.4-20.4V279.5c0-11.2-9.1-20.4-20.4-20.4z"/></symbol><symbol id="icon-expand" viewBox="0 0 24 24"><path d="M0 0h24v24H0z" fill="none"/><path d="M16.59 8.59L12 13.17 7.41 8.59 6 10l6 6 6-6z"/></symbol><symbol id="icon-insta" viewBox="0 0 24 24"><linearGradient id="SVGID_1_" gradientTransform="matrix(0 -1.982 -1.844 0 -132.522 -51.077)" gradientUnits="userSpaceOnUse" x1="-37.106" x2="-26.555" y1="-72.705" y2="-84.047"><stop offset="0" stop-color="#fd5"/><stop offset=".5" stop-color="#ff543e"/><stop offset="1" stop-color="#c837ab"/></linearGradient><path d="M1.5 1.633C-.386 3.592 0 5.673 0 11.995c0 5.25-.916 10.513 3.878 11.752 1.497.385 14.761.385 16.256-.002 1.996-.515 3.62-2.134 3.842-4.957.031-.394.031-13.185-.001-13.587-.236-3.007-2.087-4.74-4.526-5.091C18.89.029 18.778.005 15.91 0 5.737.005 3.507-.448 1.5 1.633z" fill="url(#SVGID_1_)"/><path d="M11.998 3.139c-3.631 0-7.079-.323-8.396 3.057-.544 1.396-.465 3.209-.465 5.805 0 2.278-.073 4.419.465 5.804 1.314 3.382 4.79 3.058 8.394 3.058 3.477 0 7.062.362 8.395-3.058.545-1.41.465-3.196.465-5.804 0-3.462.191-5.697-1.488-7.375-1.7-1.7-3.999-1.487-7.374-1.487zm-.794 1.597c7.574-.012 8.538-.854 8.006 10.843-.189 4.137-3.339 3.683-7.211 3.683-7.06 0-7.263-.202-7.263-7.265 0-7.145.56-7.257 6.468-7.263zm5.524 1.471a1.063 1.063 0 100 2.126 1.063 1.063 0 000-2.126zm-4.73 1.243a4.55 4.55 0 10.001 9.101 4.55 4.55 0 00-.001-9.101zm0 1.597c3.905 0 3.91 5.908 0 5.908-3.904 0-3.91-5.908 0-5.908z"/></symbol><symbol id="icon-logo" viewBox="0 0 81 60"><path d="M31.926 7.71c1.41.47 2.683 1.202 3.883 2.06 2.287 1.64 4.262 3.598 5.974 5.822a46.12 46.12 0 013.383 5.073c.181.313.378.62.685 1.118.007.01.023.007.023-.005.4-3.875-1.372-9.428-5.874-13.466-2.684-2.407-6.149-3.784-9.057-4.222-1.363-.204-2.603-.204-3.58-.002-.005.002-.01.007-.01.012-.01.383.03.788.033 1.19.019 3.688-.016 7.375.003 11.062.016 3.5.023 7 .047 10.5a1.241 1.241 0 001.214 1.226c.392.007.794.018 1.2.007a1.197 1.197 0 001.16-1.184c.007-.63-.012-1.252-.01-1.873.003-.821-.005-1.645-.01-2.466l-.002-.468-.014-2.935a23780.554 23780.554 0 00-.028-5.755c0-.134-.003-.287-.003-.452v-5.49c.163.036.747.167.983.247z"/><path d="M53.551 33.526c-.019-5.423.017-10.843-.002-16.264-.017-5.146-.024-10.292-.048-15.438C53.5.849 52.953.038 52.287.019c-.392-.012-.793-.029-1.2-.012-.642.028-1.108.802-1.112 1.741-.007.927.012 1.84.01 2.753-.003 1.21.004 2.417.009 3.626v-.002V22.26l.01 3.652-.01 4.419v1.539c-.385-.07-.841-.16-.98-.207-1.41-.47-2.684-1.203-3.884-2.061-2.286-1.64-4.261-3.598-5.974-5.822a46.15 46.15 0 01-3.382-5.073c-.182-.313-.378-.619-.685-1.118-.007-.01-.024-.007-.024.005-.399 3.875 1.373 9.429 5.875 13.466 2.657 2.384 6.642 3.871 9.543 4.323.012.002.023.005.035.005l.047.007v-.003c1.137.186 2.171.151 3.012-.103.005-.002.01-.01.01-.019.006-.558-.034-1.153-.036-1.744zM12.04 45.53v14.35h-1.255L1.524 48.236v11.646H0V45.529h1.254l9.28 11.646V45.529h1.506zm4.641 0h1.524v14.35H16.68V45.53zm9.262 1.312H20.88V45.53h11.647v1.313h-5.064v13.039H25.94v-13.04h.002zm9.259-1.312h1.524v14.35h-1.524V45.53zm7.266 13.96c-.98-.341-1.738-.793-2.275-1.353l.598-1.17c.522.52 1.214.94 2.079 1.262a7.595 7.595 0 002.676.482c1.29 0 2.256-.235 2.903-.708.647-.473.968-1.083.968-1.836 0-.574-.174-1.03-.524-1.374a3.536 3.536 0 00-1.287-.788c-.508-.184-1.214-.386-2.12-.605-1.083-.273-1.948-.536-2.593-.788a4.225 4.225 0 01-1.656-1.158c-.46-.52-.69-1.224-.69-2.11 0-.725.192-1.384.577-1.98.385-.595.973-1.068 1.77-1.426.795-.355 1.783-.534 2.964-.534.824 0 1.63.113 2.419.34.788.225 1.471.536 2.047.93l-.514 1.21a7.14 7.14 0 00-1.935-.891 7.273 7.273 0 00-2.017-.297c-1.262 0-2.213.242-2.851.727-.638.485-.957 1.11-.957 1.876 0 .574.175 1.035.525 1.383.35.349.788.614 1.317.8.53.184 1.238.386 2.131.605 1.056.259 1.911.515 2.563.77a4.197 4.197 0 011.656 1.148c.453.513.68 1.207.68 2.08 0 .725-.196 1.383-.586 1.979-.392.595-.992 1.066-1.8 1.414-.81.348-1.804.522-2.983.522a9.184 9.184 0 01-3.085-.51zm21.58-12.65c1.042.876 1.564 2.078 1.564 3.608 0 1.532-.522 2.73-1.564 3.598-1.044.868-2.482 1.301-4.322 1.301h-3.87v4.53h-1.523V45.525h5.393c1.84.003 3.28.44 4.322 1.316zm-1.091 6.243c.753-.62 1.131-1.498 1.131-2.635 0-1.162-.378-2.054-1.131-2.675-.756-.622-1.845-.932-3.272-.932h-3.829v7.177h3.83c1.426-.003 2.517-.313 3.27-.934zm17.21.616c.515.61.773 1.39.773 2.348 0 1.23-.456 2.177-1.368 2.84-.912.664-2.26.996-4.044.996H68.9V45.53h6.215c1.606 0 2.85.323 3.734.965.886.642 1.328 1.55 1.328 2.727 0 .793-.196 1.466-.586 2.02-.39.552-.93.966-1.616 1.24.947.202 1.677.609 2.192 1.216zm-9.746-6.92v5.207h4.59c1.167 0 2.064-.221 2.695-.666.63-.445.947-1.09.947-1.937s-.316-1.494-.947-1.936c-.63-.445-1.53-.666-2.695-.666h-4.59v-.003zm8.008 11.195c.659-.437.987-1.12.987-2.05 0-1.79-1.304-2.684-3.91-2.684h-5.082v5.39h5.083c1.287 0 2.263-.218 2.922-.656z"/></symbol><symbol id="icon-mail" viewBox="0 0 512 512"><path d="M485.743 85.333H26.257C11.815 85.333 0 97.148 0 111.589V400.41c0 14.44 11.815 26.257 26.257 26.257h459.487c14.44 0 26.257-11.815 26.257-26.257V111.589c-.001-14.441-11.816-26.256-26.258-26.256zm-9.853 19.691L271.104 258.626c-3.682 2.802-9.334 4.555-15.105 4.529-5.77.026-11.421-1.727-15.104-4.529L36.109 105.024H475.89zM366.5 268.761l111.59 137.847c.112.138.249.243.368.368H33.542c.118-.131.256-.23.368-.368L145.5 268.761a9.846 9.846 0 00-1.464-13.851c-4.227-3.419-10.424-2.771-13.844 1.457l-110.5 136.501V117.332l209.394 157.046c7.871 5.862 17.447 8.442 26.912 8.468 9.452-.02 19.036-2.6 26.912-8.468l209.394-157.046v275.534L381.807 256.367c-3.42-4.227-9.623-4.877-13.844-1.457-4.234 3.419-4.884 9.624-1.463 13.851z"/></symbol><symbol id="icon-menu_closed" viewBox="0 0 24 24"><path fill="none" d="M0 0h24v24H0z"/><path d="M20 9H4v2h16V9zM4 15h16v-2H4v2z"/></symbol><symbol id="icon-menu_opened" viewBox="0 0 24 24"><path d="M0 0h24v24H0z" fill="none"/><path d="M19 6.41L17.59 5 12 10.59 6.41 5 5 6.41 10.59 12 5 17.59 6.41 19 12 13.41 17.59 19 19 17.59 13.41 12z"/></symbol><symbol id="icon-search" viewBox="0 0 31 31"><path fill-rule="evenodd" clip-rule="evenodd" d="M22.204 19.993l8.338 8.338a1.564 1.564 0 01-2.211 2.21l-8.339-8.338a12.4 12.4 0 112.21-2.21h.002zM12.4 21.699a9.3 9.3 0 100-18.6 9.3 9.3 0 000 18.6z"/></symbol><symbol id="icon-vk" viewBox="0 0 24 24"><path d="M12.145 19.5c3.472 0 2.234-2.198 2.502-2.83-.004-.472-.008-.926.008-1.202.22.062.739.325 1.811 1.367 1.655 1.67 2.078 2.665 3.415 2.665h2.461c.78 0 1.186-.323 1.389-.594.196-.262.388-.722.178-1.438-.549-1.724-3.751-4.701-3.95-5.015a2.84 2.84 0 01.103-.175h-.002c.632-.835 3.044-4.449 3.399-5.895a.019.019 0 00.002-.008c.192-.66.016-1.088-.166-1.33-.274-.362-.71-.545-1.299-.545h-2.461c-.824 0-1.449.415-1.765 1.172-.529 1.345-2.015 4.111-3.129 5.09a64.114 64.114 0 01.007-3.233c.036-1.535.152-3.029-1.441-3.029H9.339c-.998 0-1.953 1.09-.919 2.384.904 1.134.325 1.766.52 4.912-.76-.815-2.112-3.016-3.068-5.829-.268-.761-.674-1.466-1.817-1.466H1.594C.596 4.501 0 5.045 0 5.956 0 8.002 4.529 19.5 12.145 19.5zM4.055 6.001c.217 0 .239 0 .4.457.979 2.883 3.175 7.149 4.779 7.149 1.205 0 1.205-1.235 1.205-1.7l-.001-3.702C10.372 6.98 9.926 6.37 9.633 6l3.508.004c.002.017-.02 4.095.01 5.083 0 1.403 1.114 2.207 2.853.447 1.835-2.071 3.104-5.167 3.155-5.293.075-.18.14-.241.376-.241h2.471l-.002.009c-.225 1.05-2.446 4.396-3.189 5.435l-.034.05c-.327.534-.593 1.124.045 1.954h.001c.058.07.209.234.429.462.684.706 3.03 3.12 3.238 4.08-.138.022-.288.006-2.613.011-.495 0-.882-.74-2.359-2.23-1.328-1.292-2.19-1.82-2.975-1.82-1.524 0-1.413 1.237-1.399 2.733.005 1.622-.005 1.109.006 1.211-.089.035-.344.105-1.009.105C5.8 18 1.668 7.929 1.509 6.004c.055-.005.812-.002 2.546-.003z"/></symbol></svg>