<svg width="31" height="31" viewBox="0 0 31 31" fill="none" xmlns="http://www.w3.org/2000/svg">
<path fill-rule="evenodd" clip-rule="evenodd" d="M22.2039 19.9926L30.5425 28.3314C30.8356 28.6247 31.0001 29.0225 31 29.4371C30.9999 29.8518 30.835 30.2494 30.5417 30.5425C30.2484 30.8356 29.8507 31.0001 29.4361 31C29.0214 30.9999 28.6238 30.835 28.3307 30.5417L19.9921 22.2029C17.4994 24.1336 14.3648 25.0422 11.2259 24.7438C8.08709 24.4454 5.17982 22.9624 3.09556 20.5965C1.01129 18.2306 -0.0934065 15.1595 0.00619402 12.008C0.105795 8.85655 1.40221 5.86136 3.63171 3.6318C5.86121 1.40225 8.85632 0.105797 12.0077 0.00619417C15.1592 -0.0934088 18.2302 1.01132 20.596 3.09563C22.9618 5.17995 24.4448 8.08729 24.7432 11.2262C25.0416 14.3651 24.133 17.4998 22.2023 19.9926H22.2039ZM12.4006 21.6991C14.867 21.6991 17.2324 20.7193 18.9764 18.9753C20.7204 17.2312 21.7001 14.8658 21.7001 12.3993C21.7001 9.93288 20.7204 7.56744 18.9764 5.82339C17.2324 4.07933 14.867 3.09954 12.4006 3.09954C9.93418 3.09954 7.5688 4.07933 5.82479 5.82339C4.08078 7.56744 3.10101 9.93288 3.10101 12.3993C3.10101 14.8658 4.08078 17.2312 5.82479 18.9753C7.5688 20.7193 9.93418 21.6991 12.4006 21.6991Z" fill="black"/>
</svg>
