<svg width="44" height="35" viewBox="0 0 44 35" fill="none" xmlns="http://www.w3.org/2000/svg">
<path d="M7.58331 21H9.91665V30.3333H7.58331V21Z" fill="black"/>
<path d="M13.4167 21H15.75V30.3333H13.4167V21Z" fill="black"/>
<path d="M19.25 21H21.5833V30.3333H19.25V21Z" fill="black"/>
<path d="M25.0833 21H27.4166V30.3333H25.0833V21Z" fill="black"/>
<path d="M33.3726 11.0833L27.567 0H24.933L30.7385 11.0833H4.26147L10.067 0H7.43298L1.62743 11.0833H0V19.2112L3.12492 35H31.8731L35 19.3655V11.0833H33.3726ZM32.6667 19.1345L29.9602 32.6667H5.04175L2.33333 18.9825V18.6667H32.6667V19.1345ZM32.6667 16.3333H2.33333V13.4167H32.6667V16.3333Z" fill="black"/>
</svg>
