<svg width="22" height="19" viewBox="0 0 22 19" fill="none" xmlns="http://www.w3.org/2000/svg">
<path d="M4.30543 10.0541C4.30433 10.0484 4.30334 10.0426 4.30244 10.0369L3.04422 2.79243C2.91991 2.07668 2.27457 1.55208 1.51841 1.55208H1.20312C0.91835 1.55208 0.6875 1.33056 0.6875 1.05729C0.6875 0.784026 0.91835 0.5625 1.20312 0.5625H1.51841C2.74746 0.5625 3.80082 1.39404 4.04443 2.54167H20.7966C21.1391 2.54167 21.3865 2.85631 21.2923 3.17239L19.2299 10.0995C19.1666 10.3119 18.9643 10.4583 18.7341 10.4583H5.4211L5.54942 11.1972C5.67373 11.9129 6.31907 12.4375 7.07523 12.4375H18.7341C19.0189 12.4375 19.2497 12.659 19.2497 12.9323C19.2497 13.2056 19.0189 13.4271 18.7341 13.4271H7.07523C5.81496 13.4271 4.73941 12.5528 4.53222 11.3598L4.30543 10.0541V10.0541ZM4.218 3.53125L5.24923 9.46875H18.3452L20.113 3.53125H4.218ZM6.87491 18.375C5.73584 18.375 4.81244 17.4889 4.81244 16.3958C4.81244 15.3028 5.73584 14.4167 6.87491 14.4167C8.01398 14.4167 8.93737 15.3028 8.93737 16.3958C8.93737 17.4889 8.01398 18.375 6.87491 18.375ZM6.87491 17.3854C7.44444 17.3854 7.90614 16.9424 7.90614 16.3958C7.90614 15.8493 7.44444 15.4062 6.87491 15.4062C6.30537 15.4062 5.84367 15.8493 5.84367 16.3958C5.84367 16.9424 6.30537 17.3854 6.87491 17.3854ZM16.156 18.375C15.0169 18.375 14.0935 17.4889 14.0935 16.3958C14.0935 15.3028 15.0169 14.4167 16.156 14.4167C17.2951 14.4167 18.2185 15.3028 18.2185 16.3958C18.2185 17.4889 17.2951 18.375 16.156 18.375ZM16.156 17.3854C16.7255 17.3854 17.1872 16.9424 17.1872 16.3958C17.1872 15.8493 16.7255 15.4062 16.156 15.4062C15.5865 15.4062 15.1248 15.8493 15.1248 16.3958C15.1248 16.9424 15.5865 17.3854 16.156 17.3854Z" fill="white"/>
</svg>
