<svg width="16" height="16" viewBox="0 0 16 16" fill="none" xmlns="http://www.w3.org/2000/svg">
<circle cx="8" cy="8" r="8" fill="black"/>
<path d="M5.2833 5.1699C5.67891 5.30244 6.03608 5.50852 6.3727 5.75039C7.01415 6.21226 7.56813 6.76359 8.04856 7.3898C8.39777 7.84438 8.71121 8.32215 8.99748 8.81848C9.0485 8.90661 9.1035 8.99276 9.18965 9.13324C9.19164 9.13589 9.19627 9.13523 9.19627 9.13192C9.30826 8.04052 8.81127 6.47666 7.54825 5.33955C6.79548 4.66165 5.82337 4.274 5.00764 4.15074C4.62529 4.09309 4.27739 4.09309 4.00305 4.15008C4.00173 4.15074 4.0004 4.15207 4.0004 4.15339C3.99775 4.26141 4.00902 4.37538 4.00968 4.4887C4.01498 5.52708 4.00504 6.56546 4.01034 7.60383C4.01498 8.5892 4.01697 9.57523 4.02359 10.5606C4.02426 10.7475 4.17733 10.9025 4.3642 10.9058C4.4742 10.9078 4.58685 10.9111 4.70083 10.9078C4.88107 10.9025 5.0242 10.7548 5.02619 10.5745C5.02818 10.3969 5.02288 10.222 5.02354 10.047C5.0242 9.81577 5.02222 9.58385 5.02089 9.35258C5.02089 9.30885 5.02023 9.26445 5.02023 9.22071C5.0189 8.94505 5.01758 8.66938 5.01625 8.39438C5.01493 8.12932 5.0136 7.86426 5.01228 7.59986C5.01095 7.32419 5.00963 7.04853 5.0083 6.77353C5.0083 6.73576 5.00764 6.69268 5.00764 6.6463V5.10033C5.05336 5.11027 5.21704 5.14737 5.2833 5.1699Z" fill="white"/>
<path d="M11.3498 12.4415C11.3445 10.914 11.3545 9.38796 11.3492 7.8612C11.3445 6.41198 11.3425 4.96275 11.3359 3.51353C11.3352 3.23919 11.1822 3.01057 10.9953 3.00527C10.8853 3.00196 10.7726 2.99732 10.6587 3.00196C10.4784 3.00991 10.3479 3.22792 10.3466 3.49232C10.3446 3.75341 10.3499 4.01052 10.3492 4.26763C10.3485 4.60823 10.3505 4.94817 10.3519 5.28878V5.28811V9.26868C10.3532 9.6941 10.3545 10.2971 10.3545 10.2971L10.3519 11.5416V11.975C10.2438 11.9551 10.116 11.9299 10.0769 11.9166C9.68125 11.7841 9.32408 11.578 8.98745 11.3362C8.34601 10.8743 7.79202 10.323 7.3116 9.69675C6.96238 9.24217 6.64895 8.7644 6.36268 8.26807C6.31166 8.17994 6.25666 8.09379 6.17051 7.95331C6.16852 7.95066 6.16389 7.95132 6.16389 7.95464C6.0519 9.04603 6.54889 10.6099 7.81191 11.747C8.55739 12.4183 9.67529 12.8371 10.489 12.9643C10.4923 12.965 10.4957 12.9656 10.499 12.9656C10.5036 12.9663 10.5082 12.967 10.5122 12.9676V12.967C10.831 13.0193 11.1212 13.0094 11.3571 12.9378C11.3584 12.9371 11.3598 12.9351 11.3598 12.9325C11.3617 12.7754 11.3505 12.6078 11.3498 12.4415Z" fill="white"/>
</svg>
